<?xml version="1.0" standalone="no"?>
<!DOCTYPE svg PUBLIC "-//W3C//DTD SVG 20010904//EN"
 "http://www.w3.org/TR/2001/REC-SVG-20010904/DTD/svg10.dtd">
<svg version="1.0" xmlns="http://www.w3.org/2000/svg"
 width="1024.000000pt" height="1024.000000pt" viewBox="0 0 1024.000000 1024.000000"
 preserveAspectRatio="xMidYMid meet">

<g transform="translate(0.000000,1024.000000) scale(0.100000,-0.100000)"
fill="#000000" stroke="none">
<path d="M0 5120 l0 -5120 5120 0 5120 0 0 5120 0 5120 -5120 0 -5120 0 0
-5120z m2473 1320 c98 -37 185 -137 209 -238 11 -45 16 -52 43 -58 101 -21
214 -117 263 -221 24 -51 27 -70 27 -153 -1 -123 -25 -187 -102 -270 -87 -95
-230 -151 -343 -136 -42 6 -46 4 -87 -36 -30 -30 -43 -50 -43 -70 l0 -28 -95
0 c-52 0 -98 0 -102 0 -5 0 -7 14 -6 30 1 24 -7 37 -46 69 -45 38 -51 40 -97
35 -102 -12 -240 43 -318 126 -143 153 -151 383 -19 531 57 63 103 93 176 114
51 15 55 18 62 52 11 61 47 126 97 176 100 100 244 129 381 77z m1164 -590
c-26 -17 -49 -39 -52 -52 -5 -25 -12 -438 -7 -438 15 0 162 146 242 240 147
173 166 215 118 260 l-22 20 145 0 144 0 -55 -31 c-61 -33 -218 -183 -313
-298 l-61 -74 24 -41 c72 -126 356 -576 387 -614 20 -25 50 -52 65 -61 15 -9
28 -20 28 -25 0 -4 -59 -6 -131 -5 l-131 4 -37 41 c-20 23 -61 86 -92 140
-145 254 -242 420 -249 428 -5 5 -21 -1 -37 -12 l-29 -20 1 -246 0 -245 29
-30 c16 -17 38 -33 48 -37 53 -17 1 -24 -172 -24 -120 0 -190 4 -190 10 0 6 4
10 9 10 5 0 26 15 45 34 l36 33 0 485 c0 482 0 485 -22 513 -12 15 -35 36 -52
46 l-31 19 204 0 205 0 -47 -30z m2473 26 c0 -2 -16 -13 -35 -25 -65 -38 -65
-36 -65 -581 l0 -490 113 0 c61 0 128 5 148 10 81 23 135 80 166 176 9 30 20
54 25 54 4 0 8 -65 8 -145 l0 -145 -370 0 c-203 0 -370 4 -370 8 0 4 14 16 30
25 62 37 61 29 58 558 l-3 481 -45 39 -45 39 193 0 c105 0 192 -2 192 -4z
m-1364 -376 c95 -41 172 -159 182 -275 l5 -65 -248 -2 -249 -3 3 -64 c5 -123
46 -199 133 -246 41 -23 64 -28 117 -28 72 0 117 15 194 65 26 17 51 27 55 23
14 -13 -108 -114 -184 -151 -69 -34 -83 -38 -157 -38 -99 0 -153 21 -225 88
-147 138 -158 434 -22 590 106 120 267 163 396 106z m3898 5 c87 -37 165 -143
186 -254 19 -101 44 -91 -241 -91 l-252 0 6 -72 c9 -102 21 -139 67 -191 92
-104 241 -108 383 -10 75 52 51 -2 -31 -68 -64 -53 -141 -89 -215 -102 -117
-20 -229 25 -307 124 -54 68 -80 156 -80 269 0 183 70 303 222 381 80 41 183
47 262 14z m-1882 -287 c3 -327 7 -348 61 -382 54 -34 169 -26 222 15 l25 21
-2 276 -3 277 -48 24 c-26 13 -46 25 -44 27 2 2 52 10 113 19 60 8 121 17 136
20 l28 4 2 -367 3 -367 32 -20 c18 -11 32 -23 33 -27 0 -5 -56 -8 -125 -8
l-125 0 0 44 0 45 -50 -34 c-67 -45 -142 -69 -220 -69 -105 0 -169 48 -189
144 -6 29 -11 159 -11 304 0 279 2 270 -65 296 -37 15 -31 18 103 40 59 10
110 18 114 19 3 0 8 -135 10 -301z m-1532 283 c0 -5 -9 -12 -19 -16 -28 -9
-33 -34 -18 -86 29 -94 180 -499 185 -494 3 3 20 47 38 98 18 50 51 144 73
207 55 156 54 218 -6 274 l-28 26 127 0 127 0 -48 -48 c-53 -53 -44 -31 -207
-482 -107 -295 -182 -472 -231 -543 -53 -76 -153 -108 -224 -72 -54 28 -67
113 -25 162 l25 28 38 -37 c32 -32 46 -38 81 -38 34 0 47 6 78 37 20 20 54 74
76 119 41 88 46 106 25 98 -10 -3 -51 84 -141 303 -71 169 -137 329 -148 356
-11 26 -36 60 -54 77 -19 16 -34 32 -34 35 0 3 70 5 155 5 89 0 155 -4 155 -9z
m2467 -9 c-10 -10 -17 -30 -17 -44 0 -24 117 -216 132 -217 14 -1 117 163 124
195 5 25 1 37 -15 53 -12 12 -21 23 -21 26 0 3 53 5 118 4 95 0 113 -2 98 -12
-68 -41 -291 -291 -279 -311 4 -6 62 -96 130 -199 102 -156 131 -192 168 -215
24 -15 45 -30 45 -34 0 -5 -76 -8 -170 -8 -93 0 -170 2 -170 5 0 3 9 14 21 26
11 11 19 29 16 38 -2 10 -37 68 -77 129 l-73 112 -24 -32 c-109 -148 -133
-234 -71 -253 48 -16 7 -25 -112 -25 -80 0 -130 4 -130 10 0 6 6 10 14 10 24
0 132 106 217 213 43 54 79 104 79 109 0 6 -56 95 -124 198 -81 123 -134 194
-155 206 -17 10 -31 22 -31 26 0 4 73 8 162 8 155 0 161 -1 145 -18z m-5174
-324 c9 -11 17 -28 17 -38 0 -28 -37 -67 -70 -73 l-30 -6 0 -123 c-3 -1140 -4
-1196 -27 -1219 -14 -14 -38 -23 -70 -26 -42 -5 -54 -2 -79 20 l-29 25 -3 661
-2 661 -28 6 c-61 15 -88 67 -57 111 19 27 29 29 210 25 137 -3 151 -5 168
-24z m157 -918 c0 -38 4 -70 9 -70 15 0 61 60 67 88 3 15 7 33 10 40 2 8 32
12 104 12 l100 0 0 -80 0 -80 -142 0 -143 0 0 -85 0 -85 138 0 137 0 0 -80 0
-81 -97 3 -97 3 -9 37 c-5 20 -24 54 -42 75 l-34 38 -1 -55 c-1 -102 1 -100
-106 -100 l-94 0 0 245 0 245 100 0 100 0 0 -70z"/>
<path d="M2276 6295 c-89 -31 -131 -108 -124 -228 l3 -75 -51 5 c-66 7 -148
-17 -197 -58 -106 -88 -109 -248 -5 -345 56 -54 95 -69 178 -69 64 0 82 4 128
29 29 16 71 49 92 73 l40 43 41 -45 c94 -102 238 -131 348 -70 100 55 145 155
121 264 -25 112 -147 191 -274 178 l-51 -5 3 75 c7 123 -42 207 -135 232 -49
14 -69 13 -117 -4z"/>
<path d="M4524 5448 c-47 -41 -74 -105 -81 -192 l-6 -68 136 4 c171 5 182 11
174 103 -12 158 -127 237 -223 153z"/>
<path d="M8427 5450 c-44 -39 -74 -109 -83 -195 l-7 -68 136 5 c162 5 177 13
177 86 0 67 -20 121 -61 164 -31 33 -42 38 -82 38 -37 0 -53 -6 -80 -30z"/>
</g>
</svg>
